<!DOCTYPE svg PUBLIC "-//W3C//DTD SVG 1.1//EN" "http://www.w3.org/Graphics/SVG/1.1/DTD/svg11.dtd">
<!-- Uploaded to: SVG Repo, www.svgrepo.com, Transformed by: SVG Repo Mixer Tools -->
<svg fill="#ffffff" width="256px" height="256px" viewBox="-3.2 -3.2 38.40 38.40" version="1.1" xmlns="http://www.w3.org/2000/svg" stroke="#ffffff" transform="rotate(0)" stroke-width="0.00032">
<g id="SVGRepo_bgCarrier" stroke-width="0" transform="translate(0,0), scale(1)">
<rect x="-3.2" y="-3.2" width="38.40" height="38.40" rx="0" fill="#004157" strokewidth="0"/>
</g>
<g id="SVGRepo_tracerCarrier" stroke-linecap="round" stroke-linejoin="round" stroke="#fcfcfc" stroke-width="3.2"> <title>m</title> <path d="M3.188 9.156v2c1.313-1.25 3.406-2 5.344-2s3.438 0.75 4.75 2c0.406 0.406 0.813 0.875 1.125 1.375 1.281-2.063 3.875-3.375 6.469-3.375 1.938 0 3.375 0.75 4.688 2 1.406 1.313 2.281 3.188 2.281 5.25v9.188h-2.281v-9.313c-0.063-2.719-1.938-4.906-4.688-4.906s-5.313 2.219-5.344 4.969v9.25h-2.25v-9.313c-0.094-2.719-2-4.906-4.75-4.906-2.719 0-5.281 2.188-5.344 4.906v9.313h-2.219v-16.438h2.219z"/> </g>
<g id="SVGRepo_iconCarrier"> <title>m</title> <path d="M3.188 9.156v2c1.313-1.25 3.406-2 5.344-2s3.438 0.75 4.75 2c0.406 0.406 0.813 0.875 1.125 1.375 1.281-2.063 3.875-3.375 6.469-3.375 1.938 0 3.375 0.75 4.688 2 1.406 1.313 2.281 3.188 2.281 5.25v9.188h-2.281v-9.313c-0.063-2.719-1.938-4.906-4.688-4.906s-5.313 2.219-5.344 4.969v9.25h-2.25v-9.313c-0.094-2.719-2-4.906-4.75-4.906-2.719 0-5.281 2.188-5.344 4.906v9.313h-2.219v-16.438h2.219z"/> </g>
</svg>